<svg xmlns="http://www.w3.org/2000/svg" version="1.1" xmlns:xlink="http://www.w3.org/1999/xlink" xmlns:svgjs="http://svgjs.com/svgjs" width="1440" height="560" preserveAspectRatio="none" viewBox="0 0 1440 560"><g mask="url(&quot;#SvgjsMask1008&quot;)" fill="none"><rect width="1440" height="560" x="0" y="0" fill="rgba(32, 32, 32, 1)"></rect><path d="M399.141,105.636C423.994,105.664,448.645,94.199,460.116,72.152C470.908,51.41,462.75,27.199,450.223,7.456C438.746,-10.632,420.559,-23.532,399.141,-23.944C376.995,-24.37,356.382,-13.294,344.536,5.422C331.758,25.61,326.972,51.034,338.404,72.014C350.271,93.793,374.339,105.608,399.141,105.636" fill="rgba(28, 142, 47, 0.4)" class="triangle-float1"></path><path d="M355.01957687936005 422.406856546115L434.6671909448913 336.99524739411754 349.25558179289374 257.3476333285863 269.6079677273625 342.7592424805838z" fill="rgba(28, 142, 47, 0.4)" class="triangle-float3"></path><path d="M615.732,679.335C672.772,680.213,731.206,656.95,757.826,606.495C783.147,558.502,762.773,502.135,733.235,456.616C706.725,415.763,664.431,387.298,615.732,387.521C567.405,387.742,525.762,416.747,500.077,457.684C472.393,501.808,456.918,556.054,481.015,602.235C506.668,651.399,560.285,678.482,615.732,679.335" fill="rgba(28, 142, 47, 0.4)" class="triangle-float1"></path><path d="M175.1187954333872 55.61971230758735L131.2318062194549 141.7527783938421 217.36487230570967 185.6397676077744 261.2518615196419 99.50670152151963z" fill="rgba(28, 142, 47, 0.4)" class="triangle-float1"></path><path d="M446.2103566771142 376.9991626912566L316.5002297516601 324.5928696569662 264.09393671736973 454.3029965824203 393.80406364282385 506.70928961671063z" fill="rgba(28, 142, 47, 0.4)" class="triangle-float3"></path><path d="M226.41175651605494 401.15854481898293L183.1345084837364 267.96487101566606 49.94083468041947 311.2421190479846 93.21808271273804 444.43579285130147z" fill="rgba(28, 142, 47, 0.4)" class="triangle-float2"></path><path d="M436.3999100766637 142.4724688211555L407.8461134229214 59.54622198041386 324.9198665821798 88.1000186341561 353.473663235922 171.02626547489774z" fill="rgba(28, 142, 47, 0.4)" class="triangle-float1"></path><path d="M880.891633705126 492.2202394363786L840.7997822301447 392.9894249215339 741.5689677153 433.08127639651514 781.6608191902812 532.3120909113599z" fill="rgba(28, 142, 47, 0.4)" class="triangle-float2"></path><path d="M1165.760053734099 468.36016739366704L1127.5450187106599 315.0880335472529 974.2728848642458 353.303068570692 1012.4879198876849 506.57520241710614z" fill="rgba(28, 142, 47, 0.4)" class="triangle-float2"></path></g><defs><mask id="SvgjsMask1008"><rect width="1440" height="560" fill="#ffffff"></rect></mask><style>
            @keyframes float1 {
                0%{transform: translate(0, 0)}
                50%{transform: translate(-10px, 0)}
                100%{transform: translate(0, 0)}
            }

            .triangle-float1 {
                animation: float1 5s infinite;
            }

            @keyframes float2 {
                0%{transform: translate(0, 0)}
                50%{transform: translate(-5px, -5px)}
                100%{transform: translate(0, 0)}
            }

            .triangle-float2 {
                animation: float2 4s infinite;
            }

            @keyframes float3 {
                0%{transform: translate(0, 0)}
                50%{transform: translate(0, -10px)}
                100%{transform: translate(0, 0)}
            }

            .triangle-float3 {
                animation: float3 6s infinite;
            }
        </style></defs></svg>